<?xml version="1.0" encoding="utf-8"?>
<!-- Generator: Adobe Illustrator 23.0.0, SVG Export Plug-In . SVG Version: 6.00 Build 0)  -->
<svg version="1.1" id="图层_1" xmlns="http://www.w3.org/2000/svg" xmlns:xlink="http://www.w3.org/1999/xlink" x="0px" y="0px"
	 viewBox="0 0 300 100" style="enable-background:new 0 0 300 100;" xml:space="preserve">
<style type="text/css">
	.st0{fill:#5B8BC9;}
</style>
<g>
	<path class="st0" d="M32.98,26.06c2.64,0,9.31,0.17,20.01,0.5c-0.04-0.38-0.06-0.71-0.06-1.01c0.04-1.85,0.69-2.83,1.95-2.96
		c1.13,0,1.87,0.44,2.2,1.32c0.33,0.75,0.5,1.55,0.5,2.39v0.44c11.45,0.38,18.08,0.63,19.88,0.75c1.59,0.5,2.43,1.32,2.52,2.45
		c-0.13,1.26-0.97,1.91-2.52,1.95c-3.36,0-9.92-0.17-19.69-0.5c0.04,1.13,0.1,2.27,0.19,3.4c4.66-0.25,9.52-0.4,14.6-0.44
		c2.81,0.21,4.21,0.97,4.21,2.26c-0.08,1.17-0.82,1.82-2.2,1.95c-6.25,0-11.74,0.11-16.48,0.31c0.04,0.8,0.08,1.59,0.13,2.39
		c0.08,1.17,0.13,2.08,0.13,2.7c5.79-0.08,12.16-0.17,19.13-0.25c2.35,0.04,3.59,0.69,3.71,1.95c-0.04,1.34-0.78,2.08-2.2,2.2
		c-15.06,0.13-26.42,0.42-34.1,0.88c-4.7,0.29-9.23,0.5-13.59,0.63c-1.59-0.08-2.41-0.82-2.45-2.2c0-1.09,0.9-1.76,2.71-2.01
		c5.45-0.46,12.96-0.82,22.52-1.07c-0.08-0.38-0.15-0.86-0.19-1.45c-0.04-1.22-0.11-2.41-0.19-3.59c-1.22,0.08-2.35,0.17-3.4,0.25
		c-5.49,0.42-9.29,0.8-11.39,1.13c-1.22,0.21-2.12,0.31-2.71,0.31c-1.38,0-2.12-0.65-2.2-1.95c0.04-1.13,0.78-1.87,2.2-2.2
		c4.45-0.67,9.71-1.17,15.79-1.51c0.5-0.04,0.98-0.06,1.45-0.06c-0.04-1.3-0.11-2.58-0.19-3.84c-5.96-0.21-12.86-0.46-20.7-0.75
		c-1.59-0.25-2.41-0.9-2.45-1.95C30.13,26.92,31.09,26.1,32.98,26.06z M33.74,54.56c1.26,0.04,1.91,0.61,1.95,1.7v0.38
		c3.19-1.3,6.69-2.39,10.51-3.27c6.75-1.84,12.92-2.77,18.5-2.77h1.64c3.86,0,7.17,1.22,9.94,3.65c2.6,2.18,3.9,4.76,3.9,7.74v1.26
		c0,1.76-0.21,3.9-0.63,6.42c-0.42,2.18-0.94,3.94-1.57,5.29c-0.55,0.92-1.2,1.4-1.95,1.45c-1.34-0.04-2.08-0.69-2.2-1.95
		c0-0.63,0.15-1.24,0.44-1.82c1.01-3.73,1.51-7.03,1.51-9.88c0-2.43-0.94-4.36-2.83-5.79c-1.89-1.43-4.26-2.14-7.11-2.14
		c-3.69,0-8.07,0.44-13.15,1.32c-3.44,0.71-6.73,1.53-9.88,2.45c1.59,0.17,3.46,0.36,5.6,0.57c7.05,0.67,11.09,1.09,12.14,1.26
		c1.55,0.55,2.37,1.38,2.45,2.52c-0.13,1.22-0.94,1.87-2.45,1.95c-2.98,0-10.93-0.73-23.84-2.2c-0.29-0.04-0.55-0.1-0.75-0.19v2.96
		c0.17-0.04,0.34-0.06,0.5-0.06c1.47,0,5.24,0.38,11.32,1.13c7.13,0.84,11.22,1.36,12.27,1.57c1.55,0.5,2.37,1.32,2.45,2.45
		c-0.13,1.22-0.94,1.87-2.45,1.95c-3.02,0-10.97-0.88-23.84-2.64c0.13,0.97,0.29,1.85,0.5,2.64c0.34,1.13,0.5,2.03,0.5,2.71
		c-0.17,1.26-0.82,1.91-1.95,1.95c-1.13,0-1.95-0.4-2.45-1.2c-0.75-2.73-1.17-6.17-1.26-10.32c0-3.82-0.08-6.94-0.25-9.37
		C31.95,55.17,32.77,54.6,33.74,54.56z"/>
	<path class="st0" d="M142.14,38.08c2.31,0.04,3.52,0.69,3.65,1.95c-0.04,1.34-0.78,2.08-2.2,2.2c-7.76,0.04-14.49,0.13-20.2,0.25
		c0.17,0.34,0.27,0.75,0.31,1.26c-0.04,0.38-0.13,1.17-0.25,2.39c4.11-0.08,8.62-0.15,13.53-0.19c2.31,0.04,3.52,0.69,3.65,1.95
		c-0.04,1.34-0.78,2.08-2.2,2.2c-5.96,0.04-11.07,0.13-15.35,0.25c-0.04,1.22-0.08,2.41-0.13,3.59c5.37-0.17,11.43-0.29,18.18-0.38
		c2.35,0.04,3.59,0.69,3.71,1.95c-0.08,1.34-0.82,2.1-2.2,2.27c-7.34,0.08-13.57,0.19-18.69,0.31c-0.04,0.75-0.13,1.99-0.25,3.71
		c3.98-0.17,8.41-0.29,13.27-0.38c2.31,0.04,3.52,0.69,3.65,1.95c-0.04,1.34-0.78,2.1-2.2,2.26c-5.87,0.04-10.84,0.19-14.91,0.44
		c-0.04,1.47-0.06,2.92-0.06,4.34c5.41-0.17,11.47-0.29,18.18-0.38c2.35,0.04,3.59,0.69,3.71,1.95c-0.08,1.34-0.84,2.08-2.26,2.2
		c-12.54,0.13-22.02,0.42-28.44,0.88c-3.94,0.29-7.72,0.5-11.32,0.63c-1.59-0.08-2.41-0.82-2.45-2.2c0-1.09,0.9-1.76,2.71-2.01
		c3.9-0.42,9.06-0.73,15.48-0.94c0-1.3,0.02-2.68,0.06-4.15c-1.05,0.09-1.99,0.17-2.83,0.25c-3.06,0.34-6,0.57-8.81,0.69
		c-1.59-0.08-2.41-0.82-2.45-2.2c0-1.09,0.9-1.76,2.7-2.01c2.94-0.46,6.79-0.84,11.58-1.13c0.04-1.17,0.1-2.41,0.19-3.71
		c-1.89,0.13-3.54,0.23-4.97,0.31c-3.9,0.29-7.63,0.5-11.2,0.63c-1.59-0.08-2.41-0.82-2.45-2.2c0-1.09,0.9-1.74,2.71-1.95
		c3.82-0.42,8.81-0.75,14.97-1.01c0-1.09,0.04-2.29,0.13-3.59c-1.68,0.08-3.19,0.17-4.53,0.25c-3.36,0.17-6.56,0.29-9.63,0.38
		c-1.59-0.08-2.41-0.82-2.45-2.2c0-1.09,0.9-1.74,2.71-1.95c3.56-0.29,8.32-0.52,14.28-0.69c0.08-0.84,0.17-1.68,0.25-2.52
		c0.08-0.5,0.19-0.9,0.31-1.2c-3.73,0.08-6.98,0.19-9.75,0.31c-3.52,0.13-6.94,0.23-10.25,0.31c-0.08,1.72-0.29,5.37-0.63,10.95
		c-0.34,6.21-0.55,12.73-0.63,19.57c-0.17,1.59-0.9,2.41-2.2,2.45c-1.3-0.08-2.04-0.97-2.2-2.64c0-7.26,0.42-17.43,1.26-30.51
		c-0.8-0.33-1.22-0.99-1.26-1.95c0-1.09,0.9-1.74,2.71-1.95C105.88,38.54,121.04,38.2,142.14,38.08z M98.6,24.05
		c1.26,0,1.93,0.67,2.01,2.01c0,0.46-0.15,1.41-0.44,2.83c-0.21,1.3-0.31,2.08-0.31,2.33c0,0.67,0.17,1.05,0.5,1.13
		c0.75,0.21,6,0.31,15.73,0.31c0-1.8,0.17-4.34,0.5-7.61c0.21-1.55,0.94-2.37,2.2-2.45c1.3,0.04,2.03,0.86,2.2,2.45
		c-0.04,0.38-0.15,1.34-0.31,2.89c-0.08,1.51-0.15,3.06-0.19,4.66c4.03-0.13,8.66-0.4,13.9-0.82c2.18-0.13,3.27-0.48,3.27-1.07
		c0-0.34-0.17-1.01-0.5-2.01c-0.63-1.3-0.94-2.18-0.94-2.64c0.04-1.55,0.61-2.37,1.7-2.45c1.13,0,1.89,0.4,2.26,1.2
		c1.47,2.43,2.2,4.3,2.2,5.6v1.26c0,2.39-1.78,3.78-5.35,4.15c-7.09,0.67-14.16,1.01-21.2,1.01h-9.31c-4.95,0-8.1-0.4-9.44-1.2
		c-1.26-0.8-1.89-2.12-1.89-3.96v-0.69c0-1.17,0.4-2.81,1.2-4.91C96.82,24.76,97.55,24.09,98.6,24.05z"/>
	<path class="st0" d="M160.07,29.21c1.3,0.04,2.03,0.73,2.2,2.08c2.05-1.17,4.84-2.33,8.37-3.46c6.08-2.01,11.74-3.02,16.99-3.02
		h3.21c5.83,0,10.15,1.55,12.96,4.66c2.39,2.73,3.63,6.19,3.71,10.38v2.58c0,3.9-0.21,8.12-0.63,12.65
		c-0.46,4.45-1.41,10.51-2.83,18.18c-0.42,1.09-1.07,1.66-1.95,1.7c-1.3-0.09-1.95-0.82-1.95-2.2c0-0.63,0.08-1.47,0.25-2.52
		c0.96-5.54,1.66-10.51,2.08-14.91c0.42-4.82,0.63-9.12,0.63-12.9c0-4.91-0.97-8.3-2.89-10.19c-2.06-2.18-5.6-3.27-10.63-3.27
		c-4.07,0-8.2,0.57-12.39,1.7c-4.28,1.01-8.85,2.64-13.72,4.91c-0.5,0.29-0.97,0.5-1.38,0.63c-0.04,0.75-0.08,1.51-0.13,2.26
		c-0.13,3.36-0.19,7.91-0.19,13.65c0.13,8.39,0.8,13.74,2.01,16.04c0.63,1.22,0.94,2.16,0.94,2.83c-0.08,1.43-0.73,2.18-1.95,2.26
		c-1.22,0-2.12-0.75-2.71-2.26c-1.72-2.89-2.62-9.19-2.7-18.87v-2.52c0-6,0.17-11.97,0.5-17.93
		C158.07,30.11,158.81,29.29,160.07,29.21z M168.43,37.32c1.64,0,5.87,0.19,12.71,0.57c8.01,0.34,12.62,0.57,13.84,0.69
		c1.55,0.5,2.37,1.32,2.45,2.45c-0.17,1.38-1.07,2.12-2.7,2.2c-3.36,0-12.29-0.4-26.8-1.2c-1.76-0.34-2.66-1.09-2.7-2.27
		C165.31,38.23,166.38,37.41,168.43,37.32z M183.16,48.4c4.11,0,7.59,0.78,10.44,2.33c2.64,1.55,4.01,3.99,4.09,7.3v1.45
		c0,2.94-1.34,5.22-4.03,6.86c-2.98,1.64-6.73,2.45-11.26,2.45h-2.96c-4.66,0-8.22-1.05-10.7-3.15c-1.68-1.64-2.52-4.03-2.52-7.17
		v-1.38c0-3.06,1.4-5.35,4.21-6.86c2.14-1.01,5.54-1.61,10.19-1.82H183.16z M181.46,64.63c4.86,0,7.97-0.57,9.31-1.7
		c1.64-0.75,2.45-2.08,2.45-3.96c0-2.22-0.75-3.8-2.26-4.72c-1.64-1.13-4.32-1.7-8.05-1.7c-5.28,0-8.58,0.42-9.88,1.26
		c-1.59,0.84-2.39,2.31-2.39,4.4c0,2.39,0.46,4.09,1.38,5.1C173.15,64.19,176.3,64.63,181.46,64.63z"/>
	<path class="st0" d="M221.97,36.38c1.22,0.04,1.89,0.69,2.01,1.95c-0.04,0.34-0.13,0.8-0.25,1.38c4.03-1.59,8.49-2.89,13.4-3.9
		c7.21-1.68,13.23-2.64,18.06-2.89h2.71c4.07,0,7.26,0.69,9.56,2.08c2.39,1.97,3.63,4.15,3.71,6.54v1.51c0,2.22-0.67,4.66-2.01,7.3
		c-0.59,1.09-1.49,1.68-2.7,1.76c-1.34-0.08-2.08-0.67-2.2-1.76c0.04-0.46,0.23-1.09,0.57-1.89c0.92-2.01,1.38-3.9,1.38-5.66
		c0-1.76-0.61-3.08-1.82-3.96c-1.38-1.01-3.54-1.51-6.48-1.51c-4.49,0-9.04,0.57-13.65,1.7c-4.99,1.05-10.72,2.54-17.18,4.47
		c-1.38,0.46-2.56,0.78-3.52,0.94c-0.04,2.64-0.06,5.77-0.06,9.37c-0.13,1.51-0.78,2.33-1.95,2.45c-1.68,0-2.52-1.24-2.52-3.71
		c0-4.99,0.17-9.65,0.5-13.97C219.98,37.16,220.8,36.42,221.97,36.38z M249.91,43.74c2.6,0,4.68,0.5,6.23,1.51
		c1.64,1.13,2.45,2.6,2.45,4.4c0,0.92-0.34,1.85-1.01,2.77c-1.26,1.72-4.21,3.9-8.87,6.54c0.63,1.09,1.15,2.14,1.57,3.15
		c4.61-0.21,9.69-0.36,15.23-0.44c2.47,0.04,3.77,0.78,3.9,2.2c-0.04,1.34-0.78,2.08-2.2,2.2c-6.08,0.13-11.43,0.29-16.04,0.5
		c0.04,0.46,0.06,0.88,0.06,1.26c0,3.36-0.57,5.79-1.7,7.3c-1.51,1.84-3.31,2.77-5.41,2.77c-3.02,0-5.47-0.5-7.36-1.51
		c-0.92-0.34-1.43-1.07-1.51-2.2c0.21-1.34,0.94-2.08,2.2-2.2c0.92,0,1.97,0.25,3.15,0.75c1.97,0.5,3.23,0.75,3.77,0.75
		c0.71,0,1.28-0.44,1.7-1.32c0.5-0.84,0.75-2.2,0.75-4.09c0-0.42-0.02-0.84-0.06-1.26c-3.86,0.25-7.17,0.55-9.94,0.88
		c-4.19,0.55-8.24,0.9-12.14,1.07c-1.72-0.08-2.62-0.9-2.71-2.45c0-1.09,0.99-1.74,2.96-1.95c4.91-0.88,11.68-1.55,20.32-2.01
		c-0.59-0.96-1.3-2.01-2.14-3.15c-0.34-0.59-0.5-1.24-0.5-1.95c0.17-1.22,0.92-1.89,2.26-2.01c0.46,0.04,0.86,0.13,1.2,0.25
		c2.31-1.22,4.05-2.33,5.22-3.33c0.88-0.67,1.55-1.34,2.01-2.01c0.25-0.38,0.38-0.63,0.38-0.75c0-0.5-0.25-0.88-0.75-1.13
		c-0.75-0.42-1.76-0.63-3.02-0.63c-0.97,0-2.29,0.11-3.96,0.31c-2.22,0.34-6.04,0.99-11.45,1.95c-1.17,0.29-2.06,0.44-2.64,0.44
		c-1.01-0.04-1.59-0.61-1.76-1.7c0.04-0.88,0.46-1.53,1.26-1.95c2.73-0.75,6.29-1.49,10.7-2.2
		C245.44,43.99,248.06,43.74,249.91,43.74z M226.44,24.55c1.09,0,2.16,0.57,3.21,1.7c1.26,1.17,2.29,2.24,3.08,3.21
		c1.22,1.22,1.82,2.45,1.82,3.71c-0.17,1.3-0.92,2.04-2.26,2.2c-0.84,0-1.57-0.33-2.2-1.01c-1.8-2.35-3.36-4.07-4.66-5.16
		c-0.63-0.59-0.97-1.49-1.01-2.71C224.55,25.33,225.22,24.68,226.44,24.55z M240.41,22.6c0.96,0,1.89,0.46,2.77,1.38
		c1.05,1.05,1.93,1.99,2.64,2.83c1.01,1.01,1.51,2.06,1.51,3.15c-0.17,1.3-0.9,2.03-2.2,2.2c-0.88,0-1.64-0.31-2.26-0.94
		c-1.3-1.8-2.43-3.12-3.4-3.96c-0.63-0.63-0.97-1.53-1.01-2.71C238.58,23.38,239.23,22.73,240.41,22.6z M263.75,22.1
		c1.17,0.13,1.84,0.78,2.01,1.95c-0.04,0.8-0.38,1.62-1.01,2.45c-1.34,1.59-2.73,3.31-4.15,5.16c-0.88,0.8-1.7,1.22-2.45,1.26
		c-1.22-0.17-1.89-0.9-2.01-2.2c0-0.84,0.25-1.66,0.75-2.45c1.47-2.01,2.93-3.73,4.4-5.16C262.13,22.43,262.95,22.1,263.75,22.1z"/>
</g>
</svg>
