<?xml version="1.0" standalone="no"?><!DOCTYPE svg PUBLIC "-//W3C//DTD SVG 1.1//EN" "http://www.w3.org/Graphics/SVG/1.1/DTD/svg11.dtd"><svg t="1652356480332" class="icon" viewBox="0 0 1024 1024" version="1.1" xmlns="http://www.w3.org/2000/svg" p-id="7492" width="64" height="64" xmlns:xlink="http://www.w3.org/1999/xlink"><defs><style type="text/css">@font-face { font-family: feedback-iconfont; src: url("//at.alicdn.com/t/font_1031158_u69w8yhxdu.woff2?t=1630033759944") format("woff2"), url("//at.alicdn.com/t/font_1031158_u69w8yhxdu.woff?t=1630033759944") format("woff"), url("//at.alicdn.com/t/font_1031158_u69w8yhxdu.ttf?t=1630033759944") format("truetype"); }
</style></defs><path d="M685.056 902.144H274.432c-46.592 0-83.968-37.888-83.968-83.968V228.352c0-51.712 41.984-94.208 94.208-94.208h362.496c51.712 0 94.208 41.984 94.208 94.208v352.768c0 71.68-58.368 129.536-129.536 129.536H318.464c-12.288 0-22.016-9.728-22.016-22.016s9.728-22.016 22.016-22.016h292.352c47.104 0 85.504-38.4 85.504-85.504V228.352c0-27.648-22.528-50.176-50.176-50.176H284.16c-27.648 0-50.176 22.528-50.176 50.176v589.824c0 22.016 17.92 39.936 39.936 39.936h410.624c70.144 0 127.488-56.832 127.488-127.488V196.608c0-12.288 9.728-22.016 22.016-22.016s22.016 9.728 22.016 22.016v534.016c0.512 94.72-76.288 171.52-171.008 171.52z" fill="#707070" p-id="7493"></path><path d="M690.176 804.864H317.952c-12.288 0-22.016-9.728-22.016-22.016s9.728-22.016 22.016-22.016h372.224c12.288 0 22.016 9.728 22.016 22.016 0 11.776-9.728 22.016-22.016 22.016zM566.784 511.488c-13.312 8.192-27.136 14.336-41.472 17.92-14.336 3.584-27.648 5.632-39.936 5.632-34.816 0-62.976-9.728-84.48-29.696-21.504-19.968-32.256-47.616-32.256-82.944 0-35.328 10.24-64 30.208-86.528C418.816 313.344 445.44 302.08 479.232 302.08c28.16 0 50.176 8.192 65.536 25.088 15.872 16.896 23.552 39.936 23.552 69.12 0 4.608 0 9.216-0.512 13.312H417.28c0 34.304 8.192 58.368 24.064 73.216 15.872 14.848 40.96 22.016 75.264 22.016 15.36 0 31.232-1.536 48.64-4.096l1.536 10.752z m-47.616-120.832v-7.168c0-22.528-3.584-38.4-10.752-48.128-7.168-9.728-17.408-14.336-31.744-14.336-18.432 0-32.768 6.656-42.496 20.48-9.728 13.824-15.36 30.208-16.384 49.664h101.376z" fill="#707070" p-id="7494"></path></svg>