<?xml version="1.0" standalone="no"?><!DOCTYPE svg PUBLIC "-//W3C//DTD SVG 1.1//EN" "http://www.w3.org/Graphics/SVG/1.1/DTD/svg11.dtd"><svg t="1652356808538" class="icon" viewBox="0 0 2766 1024" version="1.1" xmlns="http://www.w3.org/2000/svg" p-id="13110" width="172.875" height="64" xmlns:xlink="http://www.w3.org/1999/xlink"><defs><style type="text/css">@font-face { font-family: feedback-iconfont; src: url("//at.alicdn.com/t/font_1031158_u69w8yhxdu.woff2?t=1630033759944") format("woff2"), url("//at.alicdn.com/t/font_1031158_u69w8yhxdu.woff?t=1630033759944") format("woff"), url("//at.alicdn.com/t/font_1031158_u69w8yhxdu.ttf?t=1630033759944") format("truetype"); }
</style></defs><path d="M606.936027 488.682134h-27.755174c-11.112126 113.283347-26.64899 251.003314-222.116815 251.003314h-89.978051c-52.191795 0-54.404164-7.793572-54.404164-44.423363V105.514915c0-37.761116 0-53.297979 104.38359-53.297979h36.654931V18.855417c-39.973485 3.343694-139.932337 3.343694-185.461884 3.343694C124.941281 22.224252 38.306924 22.224252 0.545808 18.855417v33.311237h25.542806c85.528173 0 87.740542 12.21831 87.740541 52.216936v583.059782c0 39.973485-2.212369 52.216936-87.740541 52.216936H0.545808v34.442562h576.422676l29.967543-285.445877z" p-id="13111" fill="#707070"></path><path d="M588.08061 17.774373C583.605591 4.449878 581.368081 0 566.962542 0s-17.774373 4.449878-22.199111 17.774373L365.938654 470.88262c-7.793572 18.855417-21.118067 53.297979-89.952911 53.29798v27.780314h172.13739V524.1806c-34.442562 0-55.535489-15.536864-55.535489-37.761116 0-5.530922 1.131325-7.768432 3.343694-15.536864l37.761115-95.534114h219.904447l44.423363 113.308487c2.212369 4.424738 4.449878 9.980801 4.449878 13.324495 0 22.199111-42.210994 22.199111-63.303921 22.199112v27.780314h218.773121V524.1806h-15.536863c-52.191795 0-57.747858-7.768432-65.51629-29.967544L588.08061 17.774373z m-44.448504 78.840785l98.852668 251.003314h-197.680195l98.827527-251.003314z" p-id="13112" fill="#707070"></path><path d="M1477.679196 25.542805H801.297668l-19.986742 248.790946h26.648989c15.562004-178.824777 32.230193-215.454568 199.917704-215.454568 19.986742 0 48.873242 0 59.985368 2.212369 23.330436 4.424738 23.330436 16.643048 23.330436 42.185853v583.084923c0 37.761116 0 53.297979-116.627041 53.29798h-44.423363v34.442562c45.529548-3.318553 157.70671-3.318553 208.792321-3.318553s165.475142 0 211.029829 3.318553v-34.442562h-44.423363c-116.627041 0-116.627041-15.536864-116.62704-53.29798V103.277405c0-22.199111 0-37.761116 19.986742-42.185853 12.21831-2.23751 42.210994-2.23751 63.303921-2.23751 166.606467 0 183.274656 36.654931 198.811519 215.454568h27.755174l-21.092926-248.765805z" p-id="13113" fill="#707070"></path><path d="M2072.982429 738.579264h-27.780315c-27.755174 169.92502-53.297979 250.978174-243.209742 250.978174h-146.619724c-52.191795 0-54.404164-7.768432-54.404164-44.423363v-295.401537h98.827527c107.752424 0 119.945594 35.523606 119.945594 129.926395h27.780315V486.444624H1819.716465c0 94.402789-12.19317 128.845351-119.920454 128.845352h-98.852668V349.855982c0-36.654931 2.212369-44.423363 54.404164-44.423363h142.169846c169.92502 0 198.811519 61.091552 216.560753 215.454568h27.780314l-31.098868-248.790946H1388.807329v33.336378h25.567946c85.528173 0 87.740542 12.21831 87.740541 52.191795v579.741229c0 39.973485-2.212369 52.191795-87.740541 52.191795H1388.807329v34.442562h637.489087l46.660872-285.420736z" p-id="13114" fill="#707070"></path><path d="M2407.251266 346.512288l152.175788-222.116815c23.330436-35.548747 61.091552-71.097493 159.944219-72.203678V18.880558H2455.018323v33.311237c44.423363 1.106184 68.834843 25.542805 68.834843 51.08561 0 11.112126-2.212369 13.324495-9.980801 25.542806l-126.607841 186.593209-142.169846-213.242199c-2.212369-3.318553-7.793572-12.21831-7.793573-16.643048 0-13.324495 24.461761-32.230193 71.097494-33.336378V18.880558c-37.761116 3.343694-118.83941 3.343694-161.025264 3.343694-34.442562 0-103.302546-1.131325-144.382215-3.343694v33.311237h21.092927c61.091552 0 82.184479 7.793572 103.277405 38.8673l203.261398 307.644988-181.037146 267.671503c-15.562004 22.224252-48.873242 73.309862-159.944219 73.309862v34.442563h264.35295v-34.442563c-51.110751-1.106184-69.991309-31.098868-69.991309-51.08561 0-10.005941 3.343694-14.45582 11.112126-26.64899l156.625666-232.147897 175.455942 264.327809c2.212369 4.449878 5.530922 8.899757 5.530923 12.218311 0 13.324495-24.41148 32.230193-72.153397 33.336377v34.442563c38.8673-3.343694 119.920454-3.343694 161.025263-3.343694 46.635732 0 97.746483 1.106184 144.382215 3.318553v-34.442562h-21.118067c-57.747858 0-81.053154-5.530922-104.38359-39.973485l-233.228941-353.174535z" p-id="13115" fill="#707070"></path></svg>