<?xml version="1.0" standalone="no"?><!DOCTYPE svg PUBLIC "-//W3C//DTD SVG 1.1//EN" "http://www.w3.org/Graphics/SVG/1.1/DTD/svg11.dtd"><svg t="1652357167773" class="icon" viewBox="0 0 1024 1024" version="1.1" xmlns="http://www.w3.org/2000/svg" p-id="29386" width="64" height="64" xmlns:xlink="http://www.w3.org/1999/xlink"><defs><style type="text/css">@font-face { font-family: feedback-iconfont; src: url("//at.alicdn.com/t/font_1031158_u69w8yhxdu.woff2?t=1630033759944") format("woff2"), url("//at.alicdn.com/t/font_1031158_u69w8yhxdu.woff?t=1630033759944") format("woff"), url("//at.alicdn.com/t/font_1031158_u69w8yhxdu.ttf?t=1630033759944") format("truetype"); }
</style></defs><path d="M294.4 793.6H204.8c-21.1712 0-38.4-17.2288-38.4-38.4V64c0-21.1712 17.2288-38.4 38.4-38.4h614.4c21.1712 0 38.4 17.2288 38.4 38.4v166.4h-25.6V64a12.8 12.8 0 0 0-12.8-12.8H204.8a12.8 12.8 0 0 0-12.8 12.8v691.2a12.8 12.8 0 0 0 12.8 12.8h89.6v25.6z" fill="#707070" p-id="29387"></path><path d="M320 768h25.6v25.6h-25.6zM819.2 793.6H371.2v-25.6h448a12.8 12.8 0 0 0 12.8-12.8V307.2h25.6v448c0 21.1712-17.2288 38.4-38.4 38.4zM832 256h25.6v25.6h-25.6zM179.2 396.8h115.2v25.6H179.2zM179.2 166.4h89.6v25.6H179.2zM179.2 627.2h76.8v25.6H179.2z" fill="#707070" p-id="29388"></path><path d="M294.656 256h-0.512A38.1952 38.1952 0 0 1 256 217.856v-77.312A38.1952 38.1952 0 0 1 294.144 102.4C315.6864 102.4 332.8 119.5136 332.8 140.544v77.2992A38.1952 38.1952 0 0 1 294.656 256z m0-128c-7.424 0-13.056 5.6192-13.056 12.544v77.2992c0 6.9248 5.6192 12.544 12.544 12.544h0.4992a12.544 12.544 0 0 0 12.544-12.544V140.544a12.5312 12.5312 0 0 0-12.5312-12.544zM320.256 486.4h-0.512A38.1952 38.1952 0 0 1 281.6 448.256v-77.312A38.1824 38.1824 0 0 1 319.744 332.8c21.5424 0 38.656 17.1136 38.656 38.144v77.2992A38.1952 38.1952 0 0 1 320.256 486.4z m0-128c-7.424 0-13.056 5.6192-13.056 12.544v77.2992c0 6.9248 5.6192 12.544 12.544 12.544h0.4992a12.544 12.544 0 0 0 12.544-12.544V370.944a12.5312 12.5312 0 0 0-12.5312-12.544zM563.456 486.4h-0.512A38.1952 38.1952 0 0 1 524.8 448.256v-77.312A38.1824 38.1824 0 0 1 562.944 332.8c21.5424 0 38.656 17.1136 38.656 38.144v77.2992A38.1952 38.1952 0 0 1 563.456 486.4z m0-128c-7.424 0-13.056 5.6192-13.056 12.544v77.2992c0 6.9248 5.6192 12.544 12.544 12.544h0.4992a12.544 12.544 0 0 0 12.544-12.544V370.944a12.5312 12.5312 0 0 0-12.5312-12.544zM665.856 486.4h-0.512A38.1952 38.1952 0 0 1 627.2 448.256v-77.312A38.1824 38.1824 0 0 1 665.344 332.8c21.5424 0 38.656 17.1136 38.656 38.144v77.2992A38.1952 38.1952 0 0 1 665.856 486.4z m0-128c-7.424 0-13.056 5.6192-13.056 12.544v77.2992c0 6.9248 5.6192 12.544 12.544 12.544h0.4992a12.544 12.544 0 0 0 12.544-12.544V370.944a12.5312 12.5312 0 0 0-12.5312-12.544zM768.256 486.4h-0.512A38.1952 38.1952 0 0 1 729.6 448.256v-77.312A38.1824 38.1824 0 0 1 767.744 332.8c21.5424 0 38.656 17.1136 38.656 38.144v77.2992A38.1952 38.1952 0 0 1 768.256 486.4z m0-128c-7.424 0-13.056 5.6192-13.056 12.544v77.2992c0 6.9248 5.6192 12.544 12.544 12.544h0.4992a12.544 12.544 0 0 0 12.544-12.544V370.944a12.5312 12.5312 0 0 0-12.5312-12.544zM281.856 716.8h-0.512A38.1952 38.1952 0 0 1 243.2 678.656v-77.312A38.1824 38.1824 0 0 1 281.344 563.2c21.5424 0 38.656 17.1136 38.656 38.144v77.2992A38.1952 38.1952 0 0 1 281.856 716.8z m0-128c-7.424 0-13.056 5.6192-13.056 12.544v77.2992c0 6.9248 5.6192 12.544 12.544 12.544h0.4992a12.544 12.544 0 0 0 12.544-12.544V601.344a12.5312 12.5312 0 0 0-12.5312-12.544zM409.856 716.8h-0.512A38.1952 38.1952 0 0 1 371.2 678.656v-77.312A38.1824 38.1824 0 0 1 409.344 563.2c21.5424 0 38.656 17.1136 38.656 38.144v77.2992A38.1952 38.1952 0 0 1 409.856 716.8z m0-128c-7.424 0-13.056 5.6192-13.056 12.544v77.2992c0 6.9248 5.6192 12.544 12.544 12.544h0.4992a12.544 12.544 0 0 0 12.544-12.544V601.344a12.5312 12.5312 0 0 0-12.5312-12.544zM537.856 716.8h-0.512A38.1952 38.1952 0 0 1 499.2 678.656v-77.312A38.1824 38.1824 0 0 1 537.344 563.2c21.5424 0 38.656 17.1136 38.656 38.144v77.2992A38.1952 38.1952 0 0 1 537.856 716.8z m0-128c-7.424 0-13.056 5.6192-13.056 12.544v77.2992c0 6.9248 5.6192 12.544 12.544 12.544h0.4992a12.544 12.544 0 0 0 12.544-12.544V601.344a12.5312 12.5312 0 0 0-12.5312-12.544zM717.056 716.8h-0.512A38.1952 38.1952 0 0 1 678.4 678.656v-77.312A38.1824 38.1824 0 0 1 716.544 563.2c21.5424 0 38.656 17.1136 38.656 38.144v77.2992A38.1952 38.1952 0 0 1 717.056 716.8z m0-128c-7.424 0-13.056 5.6192-13.056 12.544v77.2992c0 6.9248 5.6192 12.544 12.544 12.544h0.4992a12.544 12.544 0 0 0 12.544-12.544V601.344a12.5312 12.5312 0 0 0-12.5312-12.544zM397.056 256h-0.512A38.1952 38.1952 0 0 1 358.4 217.856v-77.312A38.1952 38.1952 0 0 1 396.544 102.4C418.0864 102.4 435.2 119.5136 435.2 140.544v77.2992A38.1952 38.1952 0 0 1 397.056 256z m0-128c-7.424 0-13.056 5.6192-13.056 12.544v77.2992c0 6.9248 5.6192 12.544 12.544 12.544h0.4992a12.544 12.544 0 0 0 12.544-12.544V140.544a12.5312 12.5312 0 0 0-12.5312-12.544zM563.456 256h-0.512A38.1952 38.1952 0 0 1 524.8 217.856v-77.312A38.1952 38.1952 0 0 1 562.944 102.4C584.4864 102.4 601.6 119.5136 601.6 140.544v77.2992A38.1952 38.1952 0 0 1 563.456 256z m0-128c-7.424 0-13.056 5.6192-13.056 12.544v77.2992c0 6.9248 5.6192 12.544 12.544 12.544h0.4992a12.544 12.544 0 0 0 12.544-12.544V140.544a12.5312 12.5312 0 0 0-12.5312-12.544zM665.856 256h-0.512A38.1952 38.1952 0 0 1 627.2 217.856v-77.312A38.1952 38.1952 0 0 1 665.344 102.4C686.8864 102.4 704 119.5136 704 140.544v77.2992A38.1952 38.1952 0 0 1 665.856 256z m0-128c-7.424 0-13.056 5.6192-13.056 12.544v77.2992c0 6.9248 5.6192 12.544 12.544 12.544h0.4992a12.544 12.544 0 0 0 12.544-12.544V140.544a12.5312 12.5312 0 0 0-12.5312-12.544z" fill="#707070" p-id="29389"></path><path d="M320 166.4h51.2v25.6h-51.2zM422.4 166.4h115.2v25.6h-115.2zM588.8 166.4h51.2v25.6h-51.2zM691.2 166.4h153.6v25.6H691.2zM345.6 396.8h192v25.6H345.6zM588.8 396.8h51.2v25.6h-51.2zM691.2 396.8h51.2v25.6h-51.2zM793.6 396.8h51.2v25.6h-51.2zM307.2 627.2h76.8v25.6h-76.8zM435.2 627.2h76.8v25.6h-76.8zM563.2 627.2h128v25.6H563.2zM742.4 627.2h102.4v25.6h-102.4z" fill="#707070" p-id="29390"></path></svg>