<?xml version="1.0" standalone="no"?><!DOCTYPE svg PUBLIC "-//W3C//DTD SVG 1.1//EN" "http://www.w3.org/Graphics/SVG/1.1/DTD/svg11.dtd"><svg t="1652356654304" class="icon" viewBox="0 0 1024 1024" version="1.1" xmlns="http://www.w3.org/2000/svg" p-id="10617" width="64" height="64" xmlns:xlink="http://www.w3.org/1999/xlink"><defs><style type="text/css">@font-face { font-family: feedback-iconfont; src: url("//at.alicdn.com/t/font_1031158_u69w8yhxdu.woff2?t=1630033759944") format("woff2"), url("//at.alicdn.com/t/font_1031158_u69w8yhxdu.woff?t=1630033759944") format("woff"), url("//at.alicdn.com/t/font_1031158_u69w8yhxdu.ttf?t=1630033759944") format("truetype"); }
</style></defs><path d="M99.4 909.8L430.8 792V219.8L99.4 102v807.8z m33.1-740.5l265.1 84.1v504.9l-265.1 84.2V169.3z m37.3 639.5h16.6V203h-16.6v605.8z m335.6-629.4H522v-61h-16.6v61z m0 80.1H522v-61.1h-16.6v61.1z m0 80.4H522v-61h-16.6v61z m0 80.1H522v-61h-16.6v61z m0 84H522v-61h-16.6v61z m0 80.1H522V523h-16.6v61.1z m0 80.4H522v-61.1h-16.6v61.1z m0 80.1H522v-61.1h-16.6v61.1z m0 78.3H522v-61.1h-16.6v61.1z m0 80.3H522v-61.1h-16.6v61.1zM857.5 203h-16.6v605.8h16.6V203z m-261 16.8V792l331.4 117.8V102L596.5 219.8z m298.3 622.7l-265.1-84.1v-505l265.1-84.2v673.3z" fill="#707070" p-id="10618"></path></svg>