<?xml version="1.0" standalone="no"?><!DOCTYPE svg PUBLIC "-//W3C//DTD SVG 1.1//EN" "http://www.w3.org/Graphics/SVG/1.1/DTD/svg11.dtd"><svg t="1652357114867" class="icon" viewBox="0 0 1661 1024" version="1.1" xmlns="http://www.w3.org/2000/svg" p-id="28095" xmlns:xlink="http://www.w3.org/1999/xlink" width="103.8125" height="64"><defs><style type="text/css">@font-face { font-family: feedback-iconfont; src: url("//at.alicdn.com/t/font_1031158_u69w8yhxdu.woff2?t=1630033759944") format("woff2"), url("//at.alicdn.com/t/font_1031158_u69w8yhxdu.woff?t=1630033759944") format("woff"), url("//at.alicdn.com/t/font_1031158_u69w8yhxdu.ttf?t=1630033759944") format("truetype"); }
</style></defs><path d="M859.761752 933.222554a441.036308 441.036308 0 1 1-1.341991-881.944617 441.036308 441.036308 0 0 1 1.53399 882.072616h-0.191999z m-1.277992-827.861947a387.464635 387.464635 0 0 0-334.980955 580.462457A387.145637 387.145637 0 1 0 858.48476 105.360607z" p-id="28096" fill="#707070"></path><path d="M859.761752 933.222554a441.036308 441.036308 0 1 1-1.341991-881.944617 441.036308 441.036308 0 0 1 1.53399 882.072616h-0.191999z m-1.277992-827.861947a387.464635 387.464635 0 0 0-334.980955 580.462457A387.145637 387.145637 0 1 0 858.48476 105.360607z" p-id="28097" fill="#707070"></path><path d="M148.504094 986.219231c-62.777617 0-76.713532-23.653856-82.914494-35.543783-55.552661-95.572417 207.572733-300.460166 369.245746-414.123473l30.812812 43.789733C171.518953 786.829448 99.470393 902.920739 111.681318 923.890611c5.944964 10.291937 64.822604 24.54785 251.491465-41.936744C522.60681 825.441212 723.084587 729.1658 927.653338 611.15552c204.568751-117.94628 388.039632-243.563513 516.917845-353.199844 150.67708-128.941213 167.873975-186.668861 161.929012-196.896799-11.826928-21.22387-148.759092-16.812897-474.662103 134.695178l-22.502863-48.456704c179.252906-82.914494 488.151021-208.595727 543.511683-112.896311 75.179541 130.284205-423.967412 464.562165-698.919734 623.102197-206.805738 119.54427-410.414495 217.225674-572.982503 275.016321-114.302302 40.657752-186.476862 53.699672-232.440581 53.699673z" p-id="28098" fill="#707070"></path></svg>