<?xml version="1.0" standalone="no"?><!DOCTYPE svg PUBLIC "-//W3C//DTD SVG 1.1//EN" "http://www.w3.org/Graphics/SVG/1.1/DTD/svg11.dtd"><svg t="1652356899541" class="icon" viewBox="0 0 1024 1024" version="1.1" xmlns="http://www.w3.org/2000/svg" p-id="15174" width="64" height="64" xmlns:xlink="http://www.w3.org/1999/xlink"><defs><style type="text/css">@font-face { font-family: feedback-iconfont; src: url("//at.alicdn.com/t/font_1031158_u69w8yhxdu.woff2?t=1630033759944") format("woff2"), url("//at.alicdn.com/t/font_1031158_u69w8yhxdu.woff?t=1630033759944") format("woff"), url("//at.alicdn.com/t/font_1031158_u69w8yhxdu.ttf?t=1630033759944") format("truetype"); }
</style></defs><path d="M890.3 755.5C870.7 834.2 704.8 895.6 503 895.6s-367.8-61.4-387.3-140.1h-2V272.8c0-86 174.3-155.7 389.3-155.7s389.3 69.7 389.3 155.7v482.7h-2zM503 148.2c-197.8 0-358.2 55.8-358.2 124.6S305.2 397.4 503 397.4s358.1-55.8 358.1-124.6S700.8 148.2 503 148.2z m358.1 185.6c-59.4 55.6-197.3 94.7-358.1 94.7s-298.8-39-358.2-94.7v94.7c0 68.8 160.4 124.6 358.2 124.6s358.1-55.8 358.1-124.6v-94.7z m0 155.8c-59.4 55.6-197.3 94.7-358.1 94.7s-298.8-39-358.2-94.7v94.7c0 68.8 160.4 124.6 358.2 124.6S861.1 653 861.1 584.2v-94.6z m0 155.7c-59.4 55.6-197.3 94.6-358.1 94.6s-298.8-39-358.2-94.6v94.6c0 68.8 160.4 124.6 358.2 124.6s358.1-55.8 358.1-124.6v-94.6z m-77.8 79.1l31.1-15.6v46.7l-31.1 15.6v-46.7zM175.9 285.9v-18.2c56 48.9 181.3 82.9 327 82.9s271.1-34 327-82.9v18.2c-63.8 47.9-186.3 80.3-327 80.3s-263.2-32.4-327-80.3z" fill="#707070" p-id="15175"></path></svg>