<?xml version="1.0" standalone="no"?><!DOCTYPE svg PUBLIC "-//W3C//DTD SVG 1.1//EN" "http://www.w3.org/Graphics/SVG/1.1/DTD/svg11.dtd"><svg t="1652356590896" class="icon" viewBox="0 0 1024 1024" version="1.1" xmlns="http://www.w3.org/2000/svg" p-id="9673" width="64" height="64" xmlns:xlink="http://www.w3.org/1999/xlink"><defs><style type="text/css">@font-face { font-family: feedback-iconfont; src: url("//at.alicdn.com/t/font_1031158_u69w8yhxdu.woff2?t=1630033759944") format("woff2"), url("//at.alicdn.com/t/font_1031158_u69w8yhxdu.woff?t=1630033759944") format("woff"), url("//at.alicdn.com/t/font_1031158_u69w8yhxdu.ttf?t=1630033759944") format("truetype"); }
</style></defs><path d="M852.48 129.696H171.52a89.92 89.92 0 0 0-89.6 90v467.888a89.92 89.92 0 0 0 89.6 89.952h250.384c-2.592 71.392-20.32 108.032-53.264 108.032a17.984 17.984 0 1 0 0 35.968h286.72a17.984 17.984 0 0 0-0.032-35.968c-32.944 0-50.688-36.64-53.264-108H852.48c49.392 0 89.6-40.384 89.6-89.952V219.648a89.92 89.92 0 0 0-89.6-89.952zM432.96 885.568c14.928-23.952 22.88-60.432 24.56-108h108.928c1.68 47.568 9.632 84.048 24.544 108h-158.016z m473.28-197.984c0 29.744-24.128 54-53.76 54H171.52a53.952 53.952 0 0 1-53.76-54V633.6h788.48v53.984z m0-89.968H117.76v-377.92a53.936 53.936 0 0 1 53.76-53.984h680.96a53.92 53.92 0 0 1 53.76 53.984v377.92zM512 723.568a35.936 35.936 0 0 1-35.84-36.016 35.936 35.936 0 0 1 35.84-36 35.936 35.936 0 0 1 35.84 36 35.936 35.936 0 0 1-35.84 36z" p-id="9674" fill="#707070"></path><path d="M440.256 482.048l228.8-231.376 29.6 29.952L469.888 512l-29.6-29.952z m-114.928-116.24l29.616-29.952 144.56 146.192L469.872 512l-144.544-146.192z" p-id="9675" fill="#707070"></path></svg>